<?xml version="1.0" encoding="UTF-8"?>
<svg xmlns="http://www.w3.org/2000/svg" width="150" height="52" viewBox="0 0 150 52" fill="none">
  <mask id="mask0_124_110" style="mask-type:alpha" maskUnits="userSpaceOnUse" x="0" y="3" width="32" height="49">
    <path d="M27.046 3.625C29.6284 3.62503 31.7219 5.71851 31.7219 8.30093V28.2905C31.7219 30.873 29.6284 32.9664 27.046 32.9665H17.8197L22.1424 26.0695H23.3052C24.9192 26.0694 26.2277 24.761 26.2277 23.147V13.3276C26.2277 12.0364 25.1809 10.9896 23.8897 10.9896H13.3689C11.7548 10.9896 10.4464 12.298 10.4464 13.9121V24.0145C8.77841 27.7967 8.25464 31.178 8.17386 32.9665H8.16472C7.03502 42.2323 10.9898 49.0847 13.7073 51.7871C2.20237 44.6193 -0.097756 31.222 0.180822 24.9894L0.000452063 9.8947C-0.0407883 6.44425 2.74491 3.62501 6.1956 3.625H27.046Z" fill="#D9D9D9"></path>
  </mask>
  <g mask="url(#mask0_124_110)">
    <path d="M-3.50708 7.71643H33.3159V55.8785H-3.50708V7.71643Z" fill="url(#paint0_linear_124_110)"></path>
  </g>
  <mask id="mask1_124_110" style="mask-type:alpha" maskUnits="userSpaceOnUse" x="0" y="3" width="32" height="49">
    <path d="M27.046 3.625C29.6284 3.62503 31.7219 5.71851 31.7219 8.30093V28.2905C31.7219 30.873 29.6284 32.9664 27.046 32.9665H17.8197L22.1424 26.0695H23.3052C24.9192 26.0694 26.2277 24.761 26.2277 23.147V13.3276C26.2277 12.0364 25.1809 10.9896 23.8897 10.9896H13.3689C11.7548 10.9896 10.4464 12.298 10.4464 13.9121V24.0145C8.77841 27.7967 8.25464 31.178 8.17386 32.9665H8.16472C7.03502 42.2323 10.9898 49.0847 13.7073 51.7871C2.20237 44.6193 -0.097756 31.222 0.180822 24.9894L0.000452063 9.8947C-0.0407883 6.44425 2.74491 3.62501 6.1956 3.625H27.046Z" fill="#D9D9D9"></path>
  </mask>
  <g mask="url(#mask1_124_110)">
    <g filter="url(#filter0_d_124_110)">
      <path d="M43.837 2.92349C43.837 15.642 33.7359 25.9525 21.2756 25.9525C8.8153 25.9525 -1.28577 15.642 -1.28577 2.92349C-1.28577 -9.79505 8.8153 -20.1055 21.2756 -20.1055C33.7359 -20.1055 43.837 -9.79505 43.837 2.92349Z" fill="url(#paint1_linear_124_110)"></path>
    </g>
  </g>
  <path d="M22.4444 20.1075C22.9079 20.1076 23.3141 20.3529 23.5403 20.7208C24.2139 21.5987 23.2743 22.8349 22.6002 23.4326C11.875 33.5304 12.8003 44.7731 14.1397 48.6307C10.6961 43.5457 8.88903 37.2651 11.5297 28.5334C13.3511 22.5108 15.1486 20.7039 16.2419 20.3202C16.4451 20.1859 16.6884 20.1075 16.9502 20.1075H22.4444Z" fill="#343434"></path>
  <mask id="mask2_124_110" style="mask-type:alpha" maskUnits="userSpaceOnUse" x="10" y="20" width="14" height="29">
    <path d="M22.4444 20.1075C22.9079 20.1076 23.3141 20.3529 23.5403 20.7208C24.2139 21.5987 23.2743 22.8349 22.6002 23.4326C11.875 33.5304 12.8003 44.7731 14.1397 48.6307C10.6961 43.5457 8.88903 37.2651 11.5297 28.5334C13.3511 22.5108 15.1486 20.7039 16.2419 20.3202C16.4451 20.1859 16.6884 20.1075 16.9502 20.1075H22.4444Z" fill="black"></path>
  </mask>
  <g mask="url(#mask2_124_110)">
    <g filter="url(#filter1_d_124_110)">
      <path d="M43.837 2.92349C43.837 15.642 33.7359 25.9525 21.2756 25.9525C8.8153 25.9525 -1.28577 15.642 -1.28577 2.92349C-1.28577 -9.79505 8.8153 -20.1055 21.2756 -20.1055C33.7359 -20.1055 43.837 -9.79505 43.837 2.92349Z" fill="url(#paint2_linear_124_110)"></path>
    </g>
  </g>
  <path d="M34.2512 32.7495V3.81213H37.5571V29.9588H45.6716V32.7495H34.2512Z" fill="#131313"></path>
  <path d="M56.5821 22.66H46.965C46.965 29.0572 49.4981 30.3881 51.8594 30.3881C53.3192 30.3881 54.4784 30.0446 55.2941 29.6153L55.8522 32.0196C54.693 32.6207 52.9327 33.0071 51.2583 33.0071C46.278 33.0071 43.702 28.9284 43.702 22.5742C43.702 15.8765 46.5786 11.669 50.7431 11.669C54.9506 11.669 56.668 16.1341 56.668 20.771C56.668 21.5867 56.625 22.1448 56.5821 22.66ZM47.0079 20.2128H53.4909C53.5338 16.0912 51.9882 14.245 50.3997 14.245C48.21 14.245 47.1367 17.3792 47.0079 20.2128Z" fill="#131313"></path>
  <path d="M67.757 19.0107V28.0268C67.757 29.6153 67.7999 31.4185 67.9716 32.7495H65.0092L64.7945 30.5598H64.6657C63.7641 32.1484 62.3044 33.0929 60.5012 33.0929C57.7534 33.0929 55.6067 30.7745 55.6067 27.1681C55.6067 21.9302 59.7713 19.6547 64.4511 19.6117V18.9677C64.4511 16.177 63.7212 14.288 61.1452 14.288C59.8572 14.288 58.6979 14.6744 57.7105 15.3613L56.9806 13.0429C57.8822 12.3989 59.7713 11.669 61.8321 11.669C65.9967 11.669 67.757 14.3738 67.757 19.0107ZM64.5369 26.1806V21.9731C62.8196 21.9731 58.8267 22.3166 58.8267 26.8246C58.8267 29.5724 60.2006 30.5169 61.3598 30.5169C62.8196 30.5169 64.0217 29.4436 64.4081 27.3827C64.494 26.9963 64.5369 26.567 64.5369 26.1806Z" fill="#131313"></path>
  <path d="M69.0131 32.7495V17.3363C69.0131 14.889 68.8843 13.644 68.8414 11.9695H71.7179L71.8897 14.5026H71.9755C72.8771 12.8282 74.5515 11.669 76.7412 11.669C79.6177 11.669 81.7644 13.7728 81.7644 18.796V32.7495H78.4585V19.3971C78.4585 16.9069 77.9862 14.4597 75.582 14.4597C74.2081 14.4597 72.8771 15.6189 72.4907 17.8085C72.3619 18.3237 72.319 18.9677 72.319 19.6976V32.7495H69.0131Z" fill="#131313"></path>
  <mask id="mask3_124_110" style="mask-type:alpha" maskUnits="userSpaceOnUse" x="34" y="3" width="48" height="31">
    <path d="M34.2512 32.7495V3.81213H37.5571V29.9588H45.6716V32.7495H34.2512Z" fill="black"></path>
    <path d="M56.5821 22.66H46.965C46.965 29.0572 49.4981 30.3881 51.8594 30.3881C53.3192 30.3881 54.4784 30.0446 55.2941 29.6153L55.8522 32.0196C54.693 32.6207 52.9327 33.0071 51.2583 33.0071C46.278 33.0071 43.702 28.9284 43.702 22.5742C43.702 15.8765 46.5786 11.669 50.7431 11.669C54.9506 11.669 56.668 16.1341 56.668 20.771C56.668 21.5867 56.625 22.1448 56.5821 22.66ZM47.0079 20.2128H53.4909C53.5338 16.0912 51.9882 14.245 50.3997 14.245C48.21 14.245 47.1367 17.3792 47.0079 20.2128Z" fill="black"></path>
    <path d="M67.757 19.0107V28.0268C67.757 29.6153 67.7999 31.4185 67.9716 32.7495H65.0092L64.7945 30.5598H64.6657C63.7641 32.1484 62.3044 33.0929 60.5012 33.0929C57.7534 33.0929 55.6067 30.7745 55.6067 27.1681C55.6067 21.9302 59.7713 19.6547 64.4511 19.6117V18.9677C64.4511 16.177 63.7212 14.288 61.1452 14.288C59.8572 14.288 58.6979 14.6744 57.7105 15.3613L56.9806 13.0429C57.8822 12.3989 59.7713 11.669 61.8321 11.669C65.9967 11.669 67.757 14.3738 67.757 19.0107ZM64.5369 26.1806V21.9731C62.8196 21.9731 58.8267 22.3166 58.8267 26.8246C58.8267 29.5724 60.2006 30.5169 61.3598 30.5169C62.8196 30.5169 64.0217 29.4436 64.4081 27.3827C64.494 26.9963 64.5369 26.567 64.5369 26.1806Z" fill="black"></path>
    <path d="M69.0131 32.7495V17.3363C69.0131 14.889 68.8843 13.644 68.8414 11.9695H71.7179L71.8897 14.5026H71.9755C72.8771 12.8282 74.5515 11.669 76.7412 11.669C79.6177 11.669 81.7644 13.7728 81.7644 18.796V32.7495H78.4585V19.3971C78.4585 16.9069 77.9862 14.4597 75.582 14.4597C74.2081 14.4597 72.8771 15.6189 72.4907 17.8085C72.3619 18.3237 72.319 18.9677 72.319 19.6976V32.7495H69.0131Z" fill="black"></path>
  </mask>
  <g mask="url(#mask3_124_110)">
    <g filter="url(#filter2_d_124_110)">
      <ellipse cx="90.5665" cy="-6.38465" rx="72.1894" ry="32.2953" fill="#292929"></ellipse>
    </g>
  </g>
  <path d="M82.4185 32.7495V4.24149C84.007 3.89802 86.1537 3.68335 88.3004 3.68335C91.6492 3.68335 94.3111 4.15562 96.1572 5.9159C97.8746 7.41858 98.6474 9.82287 98.6474 12.2701C98.6474 15.4043 97.7029 17.6368 96.2002 19.2254C94.397 21.1574 91.5204 22.016 89.159 22.016C88.7726 22.016 88.4292 22.016 88.0428 21.9731V32.7495H82.4185ZM88.0428 8.44899V17.4221C88.3433 17.4651 88.6438 17.4651 88.9873 17.4651C91.8209 17.4651 93.066 15.4472 93.066 12.7424C93.066 10.2093 92.0356 8.23432 89.4167 8.23432C88.9014 8.23432 88.3862 8.32019 88.0428 8.44899Z" fill="#7EAB0D"></path>
  <path d="M107.129 11.3685C112.109 11.3685 115.072 15.5331 115.072 22.1878C115.072 30.9463 110.22 33.0929 107.043 33.0929C102.02 33.0929 99.0143 29.143 99.0143 22.3166C99.0143 14.7602 102.964 11.3685 107.129 11.3685ZM107.086 15.6619C105.025 15.6619 104.596 19.3112 104.596 22.1878C104.596 25.7942 105.154 28.7996 107.172 28.7996C109.018 28.7996 109.49 25.279 109.49 22.1878C109.49 19.3112 109.018 15.6619 107.086 15.6619Z" fill="#7EAB0D"></path>
  <path d="M117.376 32.7495V18.0661C117.376 16.0053 117.29 13.7298 117.204 11.7549H122.055L122.356 14.8032H122.528C123.429 12.5706 125.147 11.3685 126.649 11.3685C127.25 11.3685 127.551 11.4114 127.851 11.4973V17.0357C127.508 16.9928 127.121 16.9928 126.649 16.9928C125.447 16.9928 123.859 17.8085 123.257 19.9552C123.086 20.4275 123 21.2003 123 22.059V32.7495H117.376Z" fill="#7EAB0D"></path>
  <path d="M130.879 8.06259L136.504 6.30231V11.7549H140.625V15.7477H136.504V25.3219C136.504 27.7692 137.534 28.3702 138.607 28.3702C139.165 28.3702 139.595 28.3273 140.11 28.2414L140.153 32.6207C139.38 32.8353 138.178 33.0071 136.718 33.0071C135.087 33.0071 133.67 32.6207 132.639 31.6761C131.523 30.5599 130.879 28.9713 130.879 25.6654V15.7477H128.389V11.7549H130.879V8.06259Z" fill="#7EAB0D"></path>
  <mask id="mask4_124_110" style="mask-type:alpha" maskUnits="userSpaceOnUse" x="82" y="3" width="59" height="31">
    <path d="M82.4185 32.7495V4.24149C84.007 3.89802 86.1537 3.68335 88.3004 3.68335C91.6492 3.68335 94.3111 4.15562 96.1572 5.9159C97.8746 7.41858 98.6474 9.82287 98.6474 12.2701C98.6474 15.4043 97.7029 17.6368 96.2002 19.2254C94.397 21.1574 91.5204 22.016 89.159 22.016C88.7726 22.016 88.4292 22.016 88.0428 21.9731V32.7495H82.4185ZM88.0428 8.44899V17.4221C88.3433 17.4651 88.6438 17.4651 88.9873 17.4651C91.8209 17.4651 93.066 15.4472 93.066 12.7424C93.066 10.2093 92.0356 8.23432 89.4167 8.23432C88.9014 8.23432 88.3862 8.32019 88.0428 8.44899Z" fill="#658E05"></path>
    <path d="M107.129 11.3685C112.109 11.3685 115.072 15.5331 115.072 22.1878C115.072 30.9463 110.22 33.0929 107.043 33.0929C102.02 33.0929 99.0143 29.143 99.0143 22.3166C99.0143 14.7602 102.964 11.3685 107.129 11.3685ZM107.086 15.6619C105.025 15.6619 104.596 19.3112 104.596 22.1878C104.596 25.7942 105.154 28.7996 107.172 28.7996C109.018 28.7996 109.49 25.279 109.49 22.1878C109.49 19.3112 109.018 15.6619 107.086 15.6619Z" fill="#658E05"></path>
    <path d="M117.376 32.7495V18.0661C117.376 16.0053 117.29 13.7298 117.204 11.7549H122.055L122.356 14.8032H122.528C123.429 12.5706 125.147 11.3685 126.649 11.3685C127.25 11.3685 127.551 11.4114 127.851 11.4973V17.0357C127.508 16.9928 127.121 16.9928 126.649 16.9928C125.447 16.9928 123.859 17.8085 123.257 19.9552C123.086 20.4275 123 21.2003 123 22.059V32.7495H117.376Z" fill="#658E05"></path>
    <path d="M130.879 8.06259L136.504 6.30231V11.7549H140.625V15.7477H136.504V25.3219C136.504 27.7692 137.534 28.3702 138.607 28.3702C139.165 28.3702 139.595 28.3273 140.11 28.2414L140.153 32.6207C139.38 32.8353 138.178 33.0071 136.718 33.0071C135.087 33.0071 133.67 32.6207 132.639 31.6761C131.523 30.5599 130.879 28.9713 130.879 25.6654V15.7477H128.389V11.7549H130.879V8.06259Z" fill="#658E05"></path>
  </mask>
  <g mask="url(#mask4_124_110)">
    <g filter="url(#filter3_d_124_110)">
      <ellipse cx="90.5665" cy="-6.38465" rx="72.1894" ry="32.2953" fill="#8BB426"></ellipse>
    </g>
  </g>
  <path d="M37.243 49H36.1804V45.067L34.1242 39.6988H35.2558L36.0838 42.031C36.3046 42.6796 36.5668 43.411 36.7738 44.1286H36.8014C36.9808 43.411 37.2292 42.7072 37.4776 41.9896L38.2642 39.6988H39.3682L37.243 45.0256V49ZM41.0375 42.2242C42.2381 42.2242 43.1903 43.342 43.1903 45.6604C43.1903 48.241 42.0035 49.1104 40.9685 49.1104C39.7679 49.1104 38.8019 48.0202 38.8019 45.6742C38.8019 43.2454 39.8921 42.2242 41.0375 42.2242ZM40.9961 43.066C40.0439 43.066 39.8645 44.6392 39.8645 45.6604C39.8645 46.7644 40.0577 48.2686 41.0237 48.2686C41.9345 48.2686 42.1277 46.7092 42.1277 45.6604C42.1277 44.6392 41.9345 43.066 40.9961 43.066ZM48.1005 42.3208V47.1784C48.1005 47.9098 48.1419 48.5032 48.1557 49H47.2311L47.1483 48.2962H47.1207C46.9275 48.6274 46.4169 49.1104 45.6993 49.1104C44.5401 49.1104 44.0709 48.1996 44.0709 46.5436V42.3208H45.1335V46.3918C45.1335 47.4406 45.2991 48.2134 46.0305 48.2134C46.6515 48.2134 46.9275 47.6338 46.9827 47.3302C47.0241 47.1508 47.0379 46.9438 47.0379 46.723V42.3208H48.1005ZM49.3071 49V44.0458C49.3071 43.48 49.2657 42.8176 49.2519 42.3208H50.2041L50.2593 43.3834H50.2869C50.5077 42.7486 51.0735 42.2242 51.6945 42.2242C51.7773 42.2242 51.8463 42.2242 51.9153 42.238V43.3144C51.8463 43.3144 51.7773 43.3144 51.6945 43.3144C51.0183 43.3144 50.5215 43.9354 50.4111 44.6944C50.3835 44.8738 50.3697 45.0808 50.3697 45.3016V49H49.3071ZM54.4583 49V39.8368C54.8861 39.7264 55.3829 39.6574 55.9901 39.6574C56.8457 39.6574 57.5771 39.8644 58.0601 40.3336C58.5017 40.7752 58.7363 41.4514 58.7363 42.2656C58.7363 43.1212 58.5293 43.7008 58.1705 44.17C57.6737 44.86 56.8043 45.205 55.9763 45.205C55.7969 45.205 55.6589 45.205 55.5071 45.1912V49H54.4583ZM55.5071 40.5958V44.308C55.6313 44.3218 55.7555 44.3356 55.9349 44.3356C56.9699 44.3356 57.6737 43.6594 57.6737 42.3346C57.6737 41.3824 57.2873 40.5268 56.1005 40.5268C55.8521 40.5268 55.6451 40.5544 55.5071 40.5958ZM61.193 42.2242C62.3936 42.2242 63.3458 43.342 63.3458 45.6604C63.3458 48.241 62.159 49.1104 61.124 49.1104C59.9234 49.1104 58.9574 48.0202 58.9574 45.6742C58.9574 43.2454 60.0476 42.2242 61.193 42.2242ZM61.1516 43.066C60.1994 43.066 60.02 44.6392 60.02 45.6604C60.02 46.7644 60.2132 48.2686 61.1792 48.2686C62.09 48.2686 62.2832 46.7092 62.2832 45.6604C62.2832 44.6392 62.09 43.066 61.1516 43.066ZM64.2402 49V44.0458C64.2402 43.48 64.1988 42.8176 64.185 42.3208H65.1372L65.1924 43.3834H65.22C65.4408 42.7486 66.0066 42.2242 66.6276 42.2242C66.7104 42.2242 66.7794 42.2242 66.8484 42.238V43.3144C66.7794 43.3144 66.7104 43.3144 66.6276 43.3144C65.9514 43.3144 65.4546 43.9354 65.3442 44.6944C65.3166 44.8738 65.3028 45.0808 65.3028 45.3016V49H64.2402ZM67.9726 41.1892L69.0352 40.7614V42.3208H70.3186V43.1212H69.0352V47.0956C69.0352 47.965 69.3388 48.1996 69.7252 48.1996C69.9046 48.1996 70.0426 48.1858 70.153 48.1582L70.2082 48.9724C70.015 49.0414 69.7666 49.0828 69.4216 49.0828C68.9938 49.0828 68.6212 48.9724 68.3728 48.6826C68.0968 48.379 67.9726 47.9236 67.9726 46.999V43.1212H67.1584V42.3208H67.9726V41.1892ZM74.1565 49H73.0939V43.1212H72.2521V42.3208H73.0939V41.9206C73.0939 41.1892 73.2043 40.4578 73.6873 39.9058C74.0737 39.478 74.6119 39.34 75.0259 39.34C75.3847 39.34 75.6607 39.409 75.8539 39.5056L75.6883 40.3336C75.5503 40.2784 75.3709 40.2232 75.0949 40.2232C74.3359 40.2232 74.1565 41.0374 74.1565 41.893V42.3208H75.3709V43.1212H74.1565V49ZM77.6425 42.2242C78.8431 42.2242 79.7953 43.342 79.7953 45.6604C79.7953 48.241 78.6085 49.1104 77.5735 49.1104C76.3729 49.1104 75.4069 48.0202 75.4069 45.6742C75.4069 43.2454 76.4971 42.2242 77.6425 42.2242ZM77.6011 43.066C76.6489 43.066 76.4695 44.6392 76.4695 45.6604C76.4695 46.7644 76.6627 48.2686 77.6287 48.2686C78.5395 48.2686 78.7327 46.7092 78.7327 45.6604C78.7327 44.6392 78.5395 43.066 77.6011 43.066ZM80.6897 49V44.0458C80.6897 43.48 80.6483 42.8176 80.6345 42.3208H81.5867L81.6419 43.3834H81.6695C81.8903 42.7486 82.4561 42.2242 83.0771 42.2242C83.1599 42.2242 83.2289 42.2242 83.2979 42.238V43.3144C83.2289 43.3144 83.1599 43.3144 83.0771 43.3144C82.4009 43.3144 81.9041 43.9354 81.7937 44.6944C81.7661 44.8738 81.7523 45.0808 81.7523 45.3016V49H80.6897ZM85.8271 49V39.6988H86.8897V48.103H89.4979V49H85.8271ZM93.8328 45.757H90.7416C90.7416 47.8132 91.5558 48.241 92.3148 48.241C92.784 48.241 93.1566 48.1306 93.4188 47.9926L93.5982 48.7654C93.2256 48.9586 92.6598 49.0828 92.1216 49.0828C90.5208 49.0828 89.6928 47.7718 89.6928 45.7294C89.6928 43.5766 90.6174 42.2242 91.956 42.2242C93.3084 42.2242 93.8604 43.6594 93.8604 45.1498C93.8604 45.412 93.8466 45.5914 93.8328 45.757ZM90.7554 44.9704H92.8392C92.853 43.6456 92.3562 43.0522 91.8456 43.0522C91.1418 43.0522 90.7968 44.0596 90.7554 44.9704ZM98.2527 44.584V47.482C98.2527 47.9926 98.2665 48.5722 98.3217 49H97.3695L97.3005 48.2962H97.2591C96.9693 48.8068 96.5001 49.1104 95.9205 49.1104C95.0373 49.1104 94.3473 48.3652 94.3473 47.206C94.3473 45.5224 95.6859 44.791 97.1901 44.7772V44.5702C97.1901 43.6732 96.9555 43.066 96.1275 43.066C95.7135 43.066 95.3409 43.1902 95.0235 43.411L94.7889 42.6658C95.0787 42.4588 95.6859 42.2242 96.3483 42.2242C97.6869 42.2242 98.2527 43.0936 98.2527 44.584ZM97.2177 46.8886V45.5362C96.6657 45.5362 95.3823 45.6466 95.3823 47.0956C95.3823 47.9788 95.8239 48.2824 96.1965 48.2824C96.6657 48.2824 97.0521 47.9374 97.1763 47.275C97.2039 47.1508 97.2177 47.0128 97.2177 46.8886ZM99.4845 49V44.0458C99.4845 43.2592 99.4431 42.859 99.4293 42.3208H100.354L100.409 43.135H100.437C100.726 42.5968 101.265 42.2242 101.968 42.2242C102.893 42.2242 103.583 42.9004 103.583 44.515V49H102.52V44.7082C102.52 43.9078 102.369 43.1212 101.596 43.1212C101.154 43.1212 100.726 43.4938 100.602 44.1976C100.561 44.3632 100.547 44.5702 100.547 44.8048V49H99.4845ZM106.792 48.9586V39.8368C107.233 39.7264 107.744 39.6574 108.337 39.6574C109.179 39.6574 109.897 39.8368 110.393 40.306C110.794 40.6786 111.001 41.2306 111.001 41.893C111.001 42.8452 110.476 43.5904 109.565 43.9492V43.9906C110.642 44.2804 111.29 45.1498 111.29 46.3642C111.29 47.137 111.042 47.758 110.628 48.2134C110.104 48.8068 109.234 49.0552 108.172 49.0552C107.495 49.0552 107.081 49.0138 106.792 48.9586ZM107.84 40.5544V43.6456H108.323C109.193 43.6456 109.938 42.9832 109.938 42.0034C109.938 41.1478 109.538 40.4854 108.406 40.4854C108.158 40.4854 107.965 40.513 107.84 40.5544ZM107.84 44.4598V48.1582C107.965 48.1858 108.144 48.2134 108.379 48.2134C109.469 48.2134 110.186 47.5648 110.186 46.3642C110.186 45.0808 109.303 44.4736 108.31 44.4598H107.84ZM116.202 42.3208V47.1784C116.202 47.9098 116.244 48.5032 116.258 49H115.333L115.25 48.2962H115.223C115.029 48.6274 114.519 49.1104 113.801 49.1104C112.642 49.1104 112.173 48.1996 112.173 46.5436V42.3208H113.235V46.3918C113.235 47.4406 113.401 48.2134 114.132 48.2134C114.753 48.2134 115.029 47.6338 115.085 47.3302C115.126 47.1508 115.14 46.9438 115.14 46.723V42.3208H116.202ZM116.981 48.6964L117.243 47.896C117.478 48.0478 117.892 48.241 118.32 48.241C118.913 48.241 119.3 47.8684 119.3 47.275C119.3 46.7644 119.12 46.4194 118.444 45.964C117.575 45.412 117.105 44.8324 117.105 44.0734C117.105 42.9832 117.906 42.2242 118.941 42.2242C119.465 42.2242 119.852 42.4036 120.128 42.5692L119.852 43.3696C119.589 43.1902 119.313 43.066 118.955 43.066C118.389 43.066 118.099 43.48 118.099 43.9216C118.099 44.3632 118.265 44.6116 118.927 45.067C119.7 45.5638 120.307 46.171 120.307 47.0956C120.307 48.4342 119.396 49.0828 118.292 49.0828C117.809 49.0828 117.271 48.931 116.981 48.6964ZM122.198 49H121.136V42.3208H122.198V49ZM121.646 39.9058C122.033 39.9058 122.281 40.1818 122.281 40.5958C122.281 41.0098 122.033 41.2858 121.633 41.2858C121.288 41.2858 121.025 41.0098 121.025 40.5958C121.025 40.1818 121.301 39.9058 121.646 39.9058ZM123.393 49V44.0458C123.393 43.2592 123.352 42.859 123.338 42.3208H124.263L124.318 43.135H124.346C124.635 42.5968 125.174 42.2242 125.877 42.2242C126.802 42.2242 127.492 42.9004 127.492 44.515V49H126.429V44.7082C126.429 43.9078 126.278 43.1212 125.505 43.1212C125.063 43.1212 124.635 43.4938 124.511 44.1976C124.47 44.3632 124.456 44.5702 124.456 44.8048V49H123.393ZM132.547 45.757H129.455C129.455 47.8132 130.27 48.241 131.029 48.241C131.498 48.241 131.87 48.1306 132.133 47.9926L132.312 48.7654C131.939 48.9586 131.374 49.0828 130.835 49.0828C129.235 49.0828 128.407 47.7718 128.407 45.7294C128.407 43.5766 129.331 42.2242 130.67 42.2242C132.022 42.2242 132.574 43.6594 132.574 45.1498C132.574 45.412 132.56 45.5914 132.547 45.757ZM129.469 44.9704H131.553C131.567 43.6456 131.07 43.0522 130.559 43.0522C129.856 43.0522 129.511 44.0596 129.469 44.9704ZM133.006 48.6964L133.268 47.896C133.503 48.0478 133.917 48.241 134.345 48.241C134.938 48.241 135.324 47.8684 135.324 47.275C135.324 46.7644 135.145 46.4194 134.469 45.964C133.599 45.412 133.13 44.8324 133.13 44.0734C133.13 42.9832 133.931 42.2242 134.966 42.2242C135.49 42.2242 135.876 42.4036 136.152 42.5692L135.876 43.3696C135.614 43.1902 135.338 43.066 134.979 43.066C134.414 43.066 134.124 43.48 134.124 43.9216C134.124 44.3632 134.289 44.6116 134.952 45.067C135.725 45.5638 136.332 46.171 136.332 47.0956C136.332 48.4342 135.421 49.0828 134.317 49.0828C133.834 49.0828 133.296 48.931 133.006 48.6964ZM136.719 48.6964L136.981 47.896C137.216 48.0478 137.63 48.241 138.058 48.241C138.651 48.241 139.037 47.8684 139.037 47.275C139.037 46.7644 138.858 46.4194 138.182 45.964C137.312 45.412 136.843 44.8324 136.843 44.0734C136.843 42.9832 137.644 42.2242 138.679 42.2242C139.203 42.2242 139.589 42.4036 139.865 42.5692L139.589 43.3696C139.327 43.1902 139.051 43.066 138.692 43.066C138.127 43.066 137.837 43.48 137.837 43.9216C137.837 44.3632 138.002 44.6116 138.665 45.067C139.438 45.5638 140.045 46.171 140.045 47.0956C140.045 48.4342 139.134 49.0828 138.03 49.0828C137.547 49.0828 137.009 48.931 136.719 48.6964Z" fill="#131313"></path>
  <path d="M138 7V1.29H136.08V0.26H141.17V1.29H139.23V7H138ZM147.555 7L147.425 4.25C147.385 3.38 147.335 2.33 147.345 1.42H147.315C147.095 2.24 146.815 3.15 146.515 4L145.525 6.92H144.585L143.685 4.04C143.425 3.18 143.185 2.26 143.005 1.42H142.985C142.955 2.3 142.915 3.37 142.865 4.29L142.715 7H141.565L142.015 0.26H143.635L144.515 2.97C144.755 3.76 144.965 4.56 145.135 5.31H145.165C145.345 4.58 145.575 3.75 145.835 2.96L146.765 0.26H148.365L148.755 7H147.555Z" fill="#131313"></path>
  <defs>
    <filter id="filter0_d_124_110" x="-5.28577" y="-20.1055" width="53.1227" height="54.058" color-interpolation-filters="sRGB">
      <feFlood flood-opacity="0" result="BackgroundImageFix"></feFlood>
      <feColorMatrix in="SourceAlpha" type="matrix" values="0 0 0 0 0 0 0 0 0 0 0 0 0 0 0 0 0 0 127 0" result="hardAlpha"></feColorMatrix>
      <feOffset dy="4"></feOffset>
      <feGaussianBlur stdDeviation="2"></feGaussianBlur>
      <feComposite in2="hardAlpha" operator="out"></feComposite>
      <feColorMatrix type="matrix" values="0 0 0 0 0.503846 0 0 0 0 0.503846 0 0 0 0 0.503846 0 0 0 0.07 0"></feColorMatrix>
      <feBlend mode="normal" in2="BackgroundImageFix" result="effect1_dropShadow_124_110"></feBlend>
      <feBlend mode="normal" in="SourceGraphic" in2="effect1_dropShadow_124_110" result="shape"></feBlend>
    </filter>
    <filter id="filter1_d_124_110" x="-5.28577" y="-20.1055" width="53.1227" height="54.058" color-interpolation-filters="sRGB">
      <feFlood flood-opacity="0" result="BackgroundImageFix"></feFlood>
      <feColorMatrix in="SourceAlpha" type="matrix" values="0 0 0 0 0 0 0 0 0 0 0 0 0 0 0 0 0 0 127 0" result="hardAlpha"></feColorMatrix>
      <feOffset dy="4"></feOffset>
      <feGaussianBlur stdDeviation="2"></feGaussianBlur>
      <feComposite in2="hardAlpha" operator="out"></feComposite>
      <feColorMatrix type="matrix" values="0 0 0 0 0.503846 0 0 0 0 0.503846 0 0 0 0 0.503846 0 0 0 0.07 0"></feColorMatrix>
      <feBlend mode="normal" in2="BackgroundImageFix" result="effect1_dropShadow_124_110"></feBlend>
      <feBlend mode="normal" in="SourceGraphic" in2="effect1_dropShadow_124_110" result="shape"></feBlend>
    </filter>
    <filter id="filter2_d_124_110" x="14.3771" y="-38.6799" width="152.379" height="72.5906" color-interpolation-filters="sRGB">
      <feFlood flood-opacity="0" result="BackgroundImageFix"></feFlood>
      <feColorMatrix in="SourceAlpha" type="matrix" values="0 0 0 0 0 0 0 0 0 0 0 0 0 0 0 0 0 0 127 0" result="hardAlpha"></feColorMatrix>
      <feOffset dy="4"></feOffset>
      <feGaussianBlur stdDeviation="2"></feGaussianBlur>
      <feComposite in2="hardAlpha" operator="out"></feComposite>
      <feColorMatrix type="matrix" values="0 0 0 0 0.503846 0 0 0 0 0.503846 0 0 0 0 0.503846 0 0 0 0.07 0"></feColorMatrix>
      <feBlend mode="normal" in2="BackgroundImageFix" result="effect1_dropShadow_124_110"></feBlend>
      <feBlend mode="normal" in="SourceGraphic" in2="effect1_dropShadow_124_110" result="shape"></feBlend>
    </filter>
    <filter id="filter3_d_124_110" x="14.3771" y="-38.6799" width="152.379" height="72.5906" color-interpolation-filters="sRGB">
      <feFlood flood-opacity="0" result="BackgroundImageFix"></feFlood>
      <feColorMatrix in="SourceAlpha" type="matrix" values="0 0 0 0 0 0 0 0 0 0 0 0 0 0 0 0 0 0 127 0" result="hardAlpha"></feColorMatrix>
      <feOffset dy="4"></feOffset>
      <feGaussianBlur stdDeviation="2"></feGaussianBlur>
      <feComposite in2="hardAlpha" operator="out"></feComposite>
      <feColorMatrix type="matrix" values="0 0 0 0 0.503846 0 0 0 0 0.503846 0 0 0 0 0.503846 0 0 0 0.07 0"></feColorMatrix>
      <feBlend mode="normal" in2="BackgroundImageFix" result="effect1_dropShadow_124_110"></feBlend>
      <feBlend mode="normal" in="SourceGraphic" in2="effect1_dropShadow_124_110" result="shape"></feBlend>
    </filter>
    <linearGradient id="paint0_linear_124_110" x1="15.5473" y1="24.1991" x2="11.1052" y2="49.9167" gradientUnits="userSpaceOnUse">
      <stop stop-color="#6E9906"></stop>
      <stop offset="1" stop-color="#628904"></stop>
    </linearGradient>
    <linearGradient id="paint1_linear_124_110" x1="21.2756" y1="4.44317" x2="10.1703" y2="22.3286" gradientUnits="userSpaceOnUse">
      <stop stop-color="#94BC31"></stop>
      <stop offset="1" stop-color="#779E16"></stop>
    </linearGradient>
    <linearGradient id="paint2_linear_124_110" x1="20.6911" y1="19.2893" x2="15.1969" y2="25.2511" gradientUnits="userSpaceOnUse">
      <stop stop-color="#646464"></stop>
      <stop offset="1" stop-color="#3C3C3C"></stop>
    </linearGradient>
  </defs>
</svg>
